<svg width="145" height="145" viewBox="0 0 145 145" fill="none" xmlns="http://www.w3.org/2000/svg">
<g clip-path="url(#clip0_3_282)">
<path fill-rule="evenodd" clip-rule="evenodd" d="M98.3137 88.4948C100.674 87.3156 101.193 83.3466 98.9513 79.831L115.259 66.7562C117.768 64.7447 118.756 60.2599 118.519 58.6029C118.639 56.4086 118.503 55.0096 116.802 51.2745C116.944 50.6336 116.896 49.6171 116.708 48.9765C115.839 45.9803 114.681 42.902 111.463 38.8878C108.244 34.8736 105.491 33.0746 102.756 31.5749C102.169 31.2541 101.19 30.984 100.533 30.9827C97.2573 28.5108 95.9214 28.0733 93.7535 27.7135C92.1875 27.1226 87.5953 27.1114 85.0864 29.1229L68.7787 42.1977C65.8326 39.2429 61.8497 38.8916 60.1836 40.9363C59.8791 41.3123 60.1016 41.8263 60.5097 42.0474C61.9609 42.8293 63.9876 44.4934 64.8773 45.3256L29.2738 73.8709C24.2133 77.9282 20.4881 86.0669 21.8724 89.0786C23.7953 93.266 26.1496 96.9838 31.1784 103.256C36.2072 109.528 39.3242 112.635 42.9933 115.422C45.632 117.428 54.386 115.561 59.4464 111.504L95.05 82.9589C95.6668 84.0059 96.85 86.3504 97.3002 87.9349C97.4272 88.3812 97.8805 88.7102 98.3137 88.4948ZM116.005 59.9756C115.3 62.6019 113.248 64.2473 111.993 65.2531C113.44 60.9767 114.114 56.6816 113.485 51.6919C115.497 54.2008 116.029 57.5534 116.005 59.9756ZM58.0521 108.501L76.8687 93.4142C76.6502 93.3627 76.4377 93.3187 76.2343 93.2758C75.2633 93.0774 74.44 92.9091 73.6028 91.9111C67.0169 97.1913 62.94 100.46 57.7979 105.613L57.8136 106.219C57.7968 106.986 57.8753 107.754 58.0521 108.501ZM93.1765 80.3394L78.1231 92.4084C76.9931 92.2841 75.5975 91.8903 74.8622 90.9013C87.4016 80.8478 90.9163 80.0907 93.1765 80.3394ZM91.867 29.869C89.1502 29.9864 87.0979 31.6318 85.8435 32.6376C90.3322 32.1547 94.6711 32.4308 99.4047 34.1297C97.3932 31.6208 94.2365 30.3722 91.867 29.869ZM50.7191 60.7987L31.9024 75.885C32.5928 76.2199 33.3229 76.4655 34.0753 76.6159L34.6655 76.7609C40.8134 72.8622 44.8903 69.5935 51.4762 64.3133C50.6841 63.2791 50.6967 62.4364 50.7163 61.448C50.7186 61.2401 50.7218 61.0232 50.7191 60.7987ZM88.8828 56.9914C93.9115 63.2636 95.6563 67.1568 97.1618 71.7489C97.2701 72.0891 97.2579 72.4563 97.1272 72.7886C96.9964 73.1208 96.7552 73.3979 96.4441 73.5732L86.0272 79.555C85.6685 79.7621 85.2429 79.8204 84.8417 79.7177C84.4405 79.615 84.0953 79.3593 83.8802 79.0054C82.9907 77.5259 82.3154 76.3032 81.696 75.1759C80.2806 72.6137 78.8527 70.185 76.3383 67.0489C73.8239 63.9128 71.7659 61.9935 69.5706 60.0523C68.605 59.2026 67.5584 58.2777 66.3077 57.0878C66.0079 56.801 65.8326 56.4082 65.8192 55.9936C65.8058 55.579 65.9554 55.1757 66.236 54.8701L74.3417 46.0055C74.5804 45.74 74.9033 45.5648 75.256 45.5094C75.6088 45.4541 75.9698 45.522 76.2784 45.7016C80.4332 48.1696 83.854 50.7191 88.8828 56.9914ZM54.29 103.274C54.4861 103.122 54.6464 102.929 54.7596 102.708C54.8727 102.488 54.9359 102.245 54.9446 101.997C54.9533 101.749 54.9073 101.503 54.8099 101.275C54.7125 101.047 54.5661 100.843 54.3811 100.678C48.2025 94.1695 43.2285 87.9193 38.7396 81.1689C38.2153 80.258 36.9827 80.0057 36.1864 80.6936L28.8935 86.994C28.4193 87.3975 28.0752 87.9324 27.9047 88.5313C27.7341 89.1301 27.7448 89.766 27.9354 90.3588C30.6536 98.6072 35.6905 104.889 43.062 109.226C43.5991 109.541 44.2175 109.689 44.8391 109.653C45.4607 109.617 46.0577 109.397 46.5546 109.022L54.29 103.274ZM51.9735 59.7929L67.0268 47.7239C66.7782 49.9841 65.275 53.25 52.7356 63.3035C51.9301 62.3708 51.8492 60.923 51.9735 59.7929Z" fill="white"/>
</g>
<defs>
<clipPath id="clip0_3_282">
<rect width="102.902" height="102.902" fill="white" transform="translate(144.653 80.2843) rotate(141.279)"/>
</clipPath>
</defs>
</svg>
