<svg width="140" height="140" viewBox="0 0 140 140" fill="none" xmlns="http://www.w3.org/2000/svg">
<path d="M84.1911 14.4554C84.1126 14.1361 83.9293 13.8524 83.6706 13.6495C83.4119 13.4467 83.0927 13.3363 82.7639 13.3361H57.4074C57.0783 13.3359 56.7587 13.4461 56.4996 13.649C56.2405 13.8519 56.0569 14.1358 55.9782 14.4554L53.1799 25.7464H86.9753L84.1911 14.4554Z" fill="#4FA9DB"/>
<path d="M59.6582 15.9222H62.6682V18.9323H59.6582V15.9222Z" fill="#3A556A"/>
<path d="M62.5907 18.8547H65.6007V21.8648H62.5907V18.8547Z" fill="#3A556A"/>
<path d="M65.6007 15.9222H68.6108V18.9323H65.6007V15.9222Z" fill="#3A556A"/>
<path d="M68.5328 18.8547H71.5428V21.8647H68.5328V18.8547ZM71.5452 15.9222H74.5553V18.9323H71.5452V15.9222Z" fill="#3A556A"/>
<path d="M74.4773 18.8547H77.4873V21.8648H74.4773V18.8547Z" fill="#3A556A"/>
<path d="M77.4873 15.9222H80.4974V18.9323H77.4873V15.9222Z" fill="#3A556A"/>
<path d="M117.566 98.5042L127.856 98.4428C128.798 98.4372 129.703 98.806 130.373 99.4681C131.043 100.13 131.423 101.031 131.428 101.973L131.551 122.406C131.556 123.348 131.187 124.254 130.525 124.924C129.863 125.594 128.962 125.974 128.02 125.979L117.73 126.041C116.788 126.046 115.883 125.678 115.213 125.015C114.543 124.353 114.163 123.452 114.157 122.51L114.035 102.077C114.03 101.135 114.399 100.23 115.061 99.5596C115.723 98.8895 116.624 98.5099 117.566 98.5042ZM12.8455 99.1273L23.1352 99.0659C24.0772 99.0603 24.9828 99.4291 25.6528 100.091C26.3229 100.753 26.7025 101.654 26.7081 102.596L26.8302 123.029C26.8358 123.971 26.4669 124.877 25.8048 125.547C25.1428 126.217 24.2416 126.597 23.2997 126.602L13.01 126.664C12.068 126.669 11.1624 126.301 10.4924 125.639C9.82231 124.976 9.44271 124.075 9.43704 123.133L9.31501 102.7C9.30942 101.758 9.67824 100.853 10.3403 100.183C11.0024 99.5126 11.9036 99.133 12.8455 99.1273ZM129.264 48.7381C128.849 48.7771 128.464 48.9705 128.185 49.28C127.907 49.5895 127.754 49.9925 127.759 50.409C127.861 51.223 127.661 52.0463 127.198 52.7234C126.735 53.4005 126.04 53.8847 125.244 54.0846L122.684 54.0987L123.999 57.9343C123.999 57.9343 140.483 57.8365 139.989 52.4217C139.605 48.2144 132.452 48.4322 129.264 48.7381ZM10.7362 48.7381C11.1509 48.7771 11.5358 48.9705 11.8146 49.28C12.0934 49.5895 12.2458 49.9925 12.2414 50.409C12.1394 51.223 12.3388 52.0463 12.8021 52.7234C13.2653 53.4005 13.9604 53.8847 14.756 54.0846L17.3163 54.0987L16.001 57.9343C16.001 57.9343 -0.482887 57.8365 0.0109072 52.4217C0.39479 48.2144 7.54834 48.4322 10.7362 48.7381Z" fill="#2F4859"/>
<path d="M136.316 80.8824C136.007 76.8563 134.843 72.9422 132.902 69.4015L125.966 56.6615C125.966 56.6615 113.618 28.8566 108.477 26.6439C103.508 24.505 71.7994 24.0294 69.6864 23.9955H69.5725C67.4696 24.0496 35.7593 24.9107 30.8161 27.1078C25.7032 29.3824 13.6925 57.331 13.6925 57.331L6.89655 70.1551C4.99645 73.7177 3.87888 77.6449 3.6186 81.674C3.14088 90.5741 4.09994 99.493 6.45892 108.088C6.99901 110.059 8.17615 111.796 9.80677 113.028C11.4374 114.259 13.4298 114.917 15.4733 114.898L70.1119 114.574H70.2259L124.856 114.248C126.9 114.243 128.885 113.561 130.501 112.31C132.117 111.059 133.274 109.308 133.791 107.331C136.046 98.7072 136.898 89.7769 136.316 80.8824Z" fill="#4FA9DB"/>
<path d="M43.4357 97.4096L96.671 97.0904C96.8975 97.089 97.1221 97.1322 97.3319 97.2177C97.5416 97.3031 97.7326 97.429 97.8937 97.5882C98.0548 97.7474 98.183 97.9368 98.2709 98.1456C98.3589 98.3544 98.4048 98.5784 98.4061 98.8049L98.4607 107.869C98.462 108.096 98.4188 108.32 98.3334 108.53C98.248 108.74 98.122 108.931 97.9628 109.092C97.8036 109.253 97.6142 109.381 97.4054 109.469C97.1967 109.557 96.9726 109.603 96.7461 109.605L43.5109 109.924C43.2844 109.925 43.0598 109.882 42.85 109.796C42.6402 109.711 42.4493 109.585 42.2882 109.426C42.127 109.267 41.9988 109.077 41.9109 108.869C41.823 108.66 41.7771 108.436 41.7757 108.209L41.7212 99.1447C41.7186 98.6873 41.8978 98.2476 42.2193 97.9222C42.5408 97.5969 42.9783 97.4125 43.4357 97.4096Z" fill="#3A556A"/>
<path d="M109.472 30.8391C109.2 30.2458 108.766 29.7412 108.221 29.383C107.675 29.0248 107.04 28.8277 106.388 28.8143L69.9859 28.0687H69.8719L33.4802 29.2499C32.8288 29.2723 32.1969 29.4774 31.6565 29.8418C31.1161 30.2062 30.689 30.7152 30.4241 31.3107L19.9825 54.7983L70.0299 54.4984H70.1439L120.191 54.2107L109.472 30.8391Z" fill="#2F4859"/>
<path d="M121.323 95.5613C117.814 95.5856 114.991 98.4493 115.015 101.957C115.039 105.465 117.903 108.289 121.411 108.265C124.916 108.241 127.74 105.381 127.719 101.875C127.698 98.3669 124.837 95.5403 121.329 95.5609L121.323 95.5613ZM19.3032 96.1691C15.7941 96.1925 12.968 99.0559 12.9914 102.565C13.0148 106.074 15.8782 108.9 19.3873 108.877C22.8956 108.853 25.7214 105.991 25.6991 102.483C25.6781 98.9746 22.8176 96.148 19.3093 96.1687L19.3032 96.1691Z" fill="#EBF0F3"/>
<path d="M119.236 70.5528C108.722 71.8621 106.044 80.6607 105.348 84.87C105.304 85.1471 105.321 85.4307 105.399 85.7004C105.476 85.9701 105.612 86.2194 105.797 86.4305C105.982 86.6416 106.211 86.8093 106.469 86.9217C106.726 87.0341 107.005 87.0884 107.285 87.0808C111.812 86.9948 116.329 86.6444 120.815 86.0314C128.452 84.9121 133.137 68.8221 119.236 70.5528Z" fill="#E1E6E9"/>
<path d="M120.143 73.8428C117.918 74.0469 116.28 76.0156 116.484 78.2405C116.688 80.4654 118.657 82.104 120.881 81.8999C123.106 81.6958 124.745 79.7271 124.541 77.5022L124.54 77.4966C124.334 75.2741 122.366 73.6392 120.143 73.8428ZM111.792 78.1403C111.187 78.1962 110.612 78.4305 110.139 78.8133C109.667 79.1962 109.319 79.7105 109.139 80.2912C108.959 80.8719 108.955 81.4929 109.128 82.0757C109.301 82.6585 109.643 83.177 110.111 83.5655C110.579 83.954 111.151 84.1951 111.756 84.2583C112.36 84.3216 112.97 84.2041 113.508 83.9208C114.046 83.6374 114.488 83.201 114.777 82.6665C115.067 82.1321 115.192 81.5238 115.136 80.9184C115.099 80.5163 114.983 80.1254 114.795 79.7682C114.607 79.4109 114.351 79.0942 114.04 78.8361C113.73 78.5781 113.371 78.3838 112.985 78.2644C112.6 78.145 112.194 78.1029 111.792 78.1403Z" fill="#BDBEC1"/>
<path d="M20.9382 70.5528C31.4517 71.8621 34.13 80.6607 34.8238 84.87C34.8682 85.1471 34.851 85.4306 34.7734 85.7003C34.6957 85.97 34.5596 86.2192 34.3747 86.4303C34.1898 86.6414 33.9606 86.8092 33.7034 86.9216C33.4463 87.034 33.1676 87.0884 32.887 87.0808C28.3606 86.9948 23.843 86.6444 19.3574 86.0314C11.7218 84.9121 7.03838 68.8221 20.9382 70.5528Z" fill="#E1E6E9"/>
<path d="M20.0306 73.8428C22.2555 74.0469 23.8941 76.0156 23.69 78.2405C23.4859 80.4654 21.5172 82.104 19.2923 81.8999C17.0674 81.6958 15.4288 79.7271 15.6329 77.5022L15.6333 77.4966C15.8402 75.2741 17.8077 73.6392 20.0306 73.8428ZM28.3814 78.1403C28.7875 78.1722 29.1832 78.2844 29.5455 78.4705C29.9078 78.6566 30.2295 78.9128 30.4919 79.2243C30.7543 79.5357 30.9523 79.8963 31.0742 80.2849C31.1961 80.6735 31.2396 81.0825 31.2021 81.488C31.1646 81.8936 31.0469 82.2877 30.8559 82.6474C30.6648 83.0071 30.4042 83.3252 30.0891 83.5833C29.774 83.8414 29.4108 84.0344 29.0205 84.1509C28.6303 84.2675 28.2207 84.3053 27.8157 84.2622C27.0135 84.1755 26.2775 83.7769 25.7666 83.1523C25.2556 82.5277 25.0108 81.7273 25.0847 80.9238C25.1587 80.1203 25.5457 79.3781 26.162 78.8573C26.7784 78.3366 27.5748 78.079 28.3794 78.1403H28.3814Z" fill="#BDBEC1"/>
<path d="M37.454 75.5138L43.0704 87.0828H95.8401L102.712 75.5138H37.454Z" fill="#3A556A"/>
</svg>
