<svg width="82" height="82" viewBox="0 0 82 82" fill="none" xmlns="http://www.w3.org/2000/svg">
<path d="M26.65 6.8335H55.35C66.2834 6.8335 75.1667 15.7168 75.1667 26.6502V55.3502C75.1667 60.6059 73.0789 65.6463 69.3625 69.3627C65.6462 73.079 60.6058 75.1668 55.35 75.1668H26.65C15.7167 75.1668 6.83337 66.2835 6.83337 55.3502V26.6502C6.83337 21.3945 8.9212 16.354 12.6375 12.6377C16.3539 8.92132 21.3943 6.8335 26.65 6.8335ZM25.9667 13.6668C22.7045 13.6668 19.576 14.9627 17.2693 17.2694C14.9626 19.5761 13.6667 22.7047 13.6667 25.9668V56.0335C13.6667 62.8327 19.1675 68.3335 25.9667 68.3335H56.0334C59.2955 68.3335 62.4241 67.0376 64.7308 64.7309C67.0375 62.4242 68.3334 59.2957 68.3334 56.0335V25.9668C68.3334 19.1677 62.8325 13.6668 56.0334 13.6668H25.9667ZM58.9375 18.7918C60.0702 18.7918 61.1565 19.2418 61.9575 20.0427C62.7584 20.8437 63.2084 21.93 63.2084 23.0627C63.2084 24.1954 62.7584 25.2817 61.9575 26.0826C61.1565 26.8835 60.0702 27.3335 58.9375 27.3335C57.8048 27.3335 56.7185 26.8835 55.9176 26.0826C55.1167 25.2817 54.6667 24.1954 54.6667 23.0627C54.6667 21.93 55.1167 20.8437 55.9176 20.0427C56.7185 19.2418 57.8048 18.7918 58.9375 18.7918ZM41 23.9168C45.5308 23.9168 49.876 25.7167 53.0798 28.9204C56.2835 32.1242 58.0834 36.4694 58.0834 41.0002C58.0834 45.5309 56.2835 49.8762 53.0798 53.0799C49.876 56.2836 45.5308 58.0835 41 58.0835C36.4693 58.0835 32.124 56.2836 28.9203 53.0799C25.7166 49.8762 23.9167 45.5309 23.9167 41.0002C23.9167 36.4694 25.7166 32.1242 28.9203 28.9204C32.124 25.7167 36.4693 23.9168 41 23.9168ZM41 30.7502C38.2816 30.7502 35.6744 31.8301 33.7522 33.7523C31.8299 35.6746 30.75 38.2817 30.75 41.0002C30.75 43.7186 31.8299 46.3258 33.7522 48.248C35.6744 50.1703 38.2816 51.2502 41 51.2502C43.7185 51.2502 46.3256 50.1703 48.2479 48.248C50.1701 46.3258 51.25 43.7186 51.25 41.0002C51.25 38.2817 50.1701 35.6746 48.2479 33.7523C46.3256 31.8301 43.7185 30.7502 41 30.7502Z" fill="black"/>
</svg>
