<svg width="95" height="95" viewBox="0 0 95 95" fill="none" xmlns="http://www.w3.org/2000/svg">
<path d="M75.2083 11.875C77.308 11.875 79.3216 12.7091 80.8063 14.1937C82.2909 15.6784 83.125 17.692 83.125 19.7917V75.2083C83.125 77.308 82.2909 79.3216 80.8063 80.8063C79.3216 82.2909 77.308 83.125 75.2083 83.125H19.7917C17.692 83.125 15.6784 82.2909 14.1937 80.8063C12.7091 79.3216 11.875 77.308 11.875 75.2083V19.7917C11.875 17.692 12.7091 15.6784 14.1937 14.1937C15.6784 12.7091 17.692 11.875 19.7917 11.875H75.2083ZM73.2292 73.2292V52.25C73.2292 48.8276 71.8696 45.5454 69.4496 43.1254C67.0296 40.7054 63.7474 39.3458 60.325 39.3458C56.9604 39.3458 53.0417 41.4042 51.1417 44.4917V40.0979H40.0979V73.2292H51.1417V53.7146C51.1417 50.6667 53.5958 48.1729 56.6437 48.1729C58.1135 48.1729 59.523 48.7568 60.5623 49.796C61.6016 50.8353 62.1854 52.2448 62.1854 53.7146V73.2292H73.2292ZM27.2333 33.8833C28.997 33.8833 30.6885 33.1827 31.9356 31.9356C33.1827 30.6885 33.8833 28.997 33.8833 27.2333C33.8833 23.5521 30.9146 20.5437 27.2333 20.5437C25.4591 20.5437 23.7576 21.2485 22.5031 22.5031C21.2485 23.7576 20.5437 25.4591 20.5437 27.2333C20.5437 30.9146 23.5521 33.8833 27.2333 33.8833ZM32.7354 73.2292V40.0979H21.7708V73.2292H32.7354Z" fill="black"/>
</svg>
