<svg width="113" height="113" viewBox="0 0 113 113" fill="none" xmlns="http://www.w3.org/2000/svg">
<path d="M47.0834 70.6248L71.5196 56.4998L47.0834 42.3748V70.6248ZM101.512 33.7586C102.124 35.9715 102.548 38.9378 102.83 42.7044C103.16 46.4711 103.301 49.7198 103.301 52.5448L103.583 56.4998C103.583 66.8111 102.83 74.3915 101.512 79.2411C100.335 83.4786 97.6038 86.2094 93.3663 87.3865C91.1534 87.9986 87.1042 88.4223 80.8892 88.7048C74.7683 89.0344 69.1654 89.1757 63.9863 89.1757L56.5 89.4582C36.7721 89.4582 24.4834 88.7048 19.6338 87.3865C15.3963 86.2094 12.6654 83.4786 11.4884 79.2411C10.8763 77.0282 10.4525 74.0619 10.17 70.2953C9.84044 66.5286 9.69919 63.2798 9.69919 60.4548L9.41669 56.4998C9.41669 46.1886 10.17 38.6082 11.4884 33.7586C12.6654 29.5211 15.3963 26.7903 19.6338 25.6132C21.8467 25.0011 25.8959 24.5773 32.1109 24.2948C38.2317 23.9653 43.8346 23.824 49.0138 23.824L56.5 23.5415C76.2279 23.5415 88.5167 24.2948 93.3663 25.6132C97.6038 26.7903 100.335 29.5211 101.512 33.7586Z" fill="black"/>
</svg>
